<?xml version="1.0" encoding="UTF-8"?>
<svg width="30px" height="24px" viewBox="0 0 30 24" version="1.1" xmlns="http://www.w3.org/2000/svg" xmlns:xlink="http://www.w3.org/1999/xlink">
    <!-- Generator: Sketch 51 (57462) - http://www.bohemiancoding.com/sketch -->
    <title>Slice</title>
    <desc>Created with Sketch.</desc>
    <defs></defs>
    <g id="Page-1" stroke="none" stroke-width="1" fill="none" fill-rule="evenodd">
        <g id="dark" transform="translate(-35.000000, 0.000000)" fill-rule="nonzero">
            <g id="light-folder" transform="translate(35.000000, 0.000000)">
                <path d="M12.0000034,1 C11.9426569,1 11.8803779,1 11.8125,1 C10.7604167,1 10.7604167,1 9.25,1 C5.77942421,1 5.55691035,1 1,1 C1,1.30509839 1,1.74475674 1,2.47709939 C1,4.76732261 1,4.76732261 1,7.70091175 C1,9.80732642 1,9.80732642 1,12 C1,16.3125 1,16.3125 1,19.96875 C1,21.5507812 1,21.5507812 1,22.7226562 C1,22.8260605 1,22.9179151 1,23 C13.3390347,23 13.5556209,23 22,23 C25.4583333,23 25.4583333,23 27.75,23 C28.3390073,23 28.7249338,23 29,23 C29,15.0330046 29,14.8176845 29,9.25 C29,6.6067232 29,5.62370277 29,5 C28.878516,5 28.7349223,5 28.5625,5 C27.21875,5 27.21875,5 25.25,5 C20.375,5 20.375,5 13,5 L12,5 L12,1 Z" id="Combined-Shape" stroke="#949494" stroke-width="2" fill="#252526"></path>
                <rect id="Path" fill="#949494" transform="translate(15.000000, 9.500000) scale(-1, 1) rotate(-180.000000) translate(-15.000000, -9.500000) " x="0" y="9" width="30" height="1"></rect>
            </g>
        </g>
    </g>
</svg>