<?xml version="1.0" encoding="UTF-8"?>
<svg width="30px" height="24px" viewBox="0 0 30 24" version="1.1" xmlns="http://www.w3.org/2000/svg" xmlns:xlink="http://www.w3.org/1999/xlink">
    <!-- Generator: Sketch 51 (57462) - http://www.bohemiancoding.com/sketch -->
    <title>Slice</title>
    <desc>Created with Sketch.</desc>
    <defs></defs>
    <g id="Page-1" stroke="none" stroke-width="1" fill="none" fill-rule="evenodd">
        <g id="dark" transform="translate(5.000000, 0.000000)" fill="#252526" fill-rule="nonzero" stroke="#949494" stroke-width="2">
            <g id="light-file">
                <path d="M19,6.41421356 L13.5857864,1 L1.42171382,1 C1.19711137,1 1.07475142,1.00272198 1.00762753,1.00629516 C1.00313835,1.07635622 1,1.20458769 1,1.44358634 L1,22.5564137 C1,22.7954123 1.00313836,22.9236438 1.00762754,22.9937048 C1.07475144,22.997278 1.19711139,23 1.42171382,23 L18.5782862,23 C18.8028886,23 18.9252486,22.997278 18.9923725,22.9937048 C18.9968616,22.9236438 19,22.7954123 19,22.5564137 L19,6.41421356 Z M0.929193922,1.0152728 C0.928316976,1.01561285 0.927592939,1.01594801 0.926987267,1.01627691 C0.928804283,1.01529021 0.930628087,1.01425351 0.932455715,1.01316996 Z M0.930054236,22.9854321 C0.929030115,22.984847 0.928007609,22.9842772 0.926987244,22.9837231 C0.92899622,22.984814 0.932307449,22.9859738 0.93818157,22.9871523 Z" id="Combined-Shape"></path>
                <path d="M19,7 C16.1913454,7 15.9977419,7 14,7 L13,7 L13,6 C13,3.73327196 13,3.49062659 13,1 L1,1 C1,1.07713962 1,1.16280585 1,1.25841346 C1,2.42668269 1,2.42668269 1,4.00961538 C1,7.67307692 1,7.67307692 1,12 C1,16.3269231 1,16.3269231 1,19.9903846 C1,21.5733173 1,21.5733173 1,22.7415865 C1,22.8371942 1,22.9228604 1,23 L19,23 C19,22.8704911 19,22.7160047 19,22.5288462 C19,21.1201923 19,21.1201923 19,19.0384615 C19,14.0945193 19,13.8755338 19,7 Z" id="Combined-Shape"></path>
            </g>
        </g>
    </g>
</svg>