<?xml version="1.0" encoding="UTF-8"?>
<svg width="34px" height="28px" viewBox="0 0 34 28" version="1.1" xmlns="http://www.w3.org/2000/svg" xmlns:xlink="http://www.w3.org/1999/xlink">
    <!-- Generator: Sketch 51 (57462) - http://www.bohemiancoding.com/sketch -->
    <title>Slice</title>
    <desc>Created with Sketch.</desc>
    <defs></defs>
    <g id="Page-1" stroke="none" stroke-width="1" fill="none" fill-rule="evenodd">
        <g id="file" transform="translate(6.000000, 1.000000)" fill="#252526" fill-rule="nonzero" stroke="#8B8B8B" stroke-width="2">
            <path d="M22,6 L16,0 L1.5638852,0 C0.90203328,0 0.70048072,0.03892159 0.49475316,0.1489459 C0.3430957,0.2300532 0.2300532,0.3430957 0.1489459,0.49475316 C0.03892159,0.70048072 0,0.90203328 0,1.5638852 L0,24.4361148 C0,25.0979667 0.03892159,25.2995193 0.1489459,25.5052468 C0.2300532,25.6569043 0.3430957,25.7699468 0.49475316,25.8510541 C0.70048072,25.9610784 0.90203328,26 1.5638852,26 L20.4361148,26 C21.0979667,26 21.2995193,25.9610784 21.5052468,25.8510541 C21.6569043,25.7699468 21.7699468,25.6569043 21.8510541,25.5052468 C21.9610784,25.2995193 22,25.0979667 22,24.4361148 L22,6 Z" id="Combined-Shape"></path>
            <path d="M22,7 L17,7 C15.8954305,7 15,6.1045695 15,5 L15,0 L1.5638852,0 C0.90203328,0 0.70048072,0.03892159 0.49475316,0.1489459 C0.3430957,0.2300532 0.2300532,0.3430957 0.1489459,0.49475316 C0.03892159,0.70048072 0,0.90203328 0,1.5638852 L0,24.4361148 C0,25.0979667 0.03892159,25.2995193 0.1489459,25.5052468 C0.2300532,25.6569043 0.3430957,25.7699468 0.49475316,25.8510541 C0.70048072,25.9610784 0.90203328,26 1.5638852,26 L20.4361148,26 C21.0979667,26 21.2995193,25.9610784 21.5052468,25.8510541 C21.6569043,25.7699468 21.7699468,25.6569043 21.8510541,25.5052468 C21.9610784,25.2995193 22,25.0979667 22,24.4361148 L22,7 Z" id="Combined-Shape"></path>
        </g>
    </g>
</svg>