<?xml version="1.0" encoding="UTF-8"?>
<svg width="32px" height="26px" viewBox="0 0 32 26" version="1.1" xmlns="http://www.w3.org/2000/svg" xmlns:xlink="http://www.w3.org/1999/xlink">
    <!-- Generator: Sketch 51 (57462) - http://www.bohemiancoding.com/sketch -->
    <title>Slice</title>
    <desc>Created with Sketch.</desc>
    <defs></defs>
    <g id="Page-1" stroke="none" stroke-width="1" fill="none" fill-rule="evenodd">
        <g id="folder" transform="translate(1.000000, 1.000000)">
            <path d="M28.5338576,3.69230769 L13.4178771,3.69230769 L12.7183301,1.13768198 C12.5776804,0.624053382 12.5099446,0.472652686 12.3953479,0.328607631 C12.3112656,0.22291836 12.2130653,0.148845729 12.0875369,0.0964251692 C11.9164528,0.0249806308 11.7503548,0 11.2100723,0 L1.46614238,0 C0.8456562,0 0.656700675,0.0359276215 0.463831088,0.137488523 C0.321652219,0.2123568 0.215674875,0.316703723 0.139636781,0.456695225 C0.0364889906,0.646597588 0,0.832646105 0,1.44358634 L0,22.5564137 C0,23.1673539 0.0364889906,23.3534024 0.139636781,23.5433047 C0.215674875,23.6832963 0.321652219,23.7876432 0.463831088,23.8625115 C0.656700675,23.9640724 0.8456562,24 1.46614238,24 L28.5338576,24 C29.1543438,24 29.3432993,23.9640724 29.5361689,23.8625115 C29.6783478,23.7876432 29.7843251,23.6832963 29.8603632,23.5433047 C29.963511,23.3534024 30,23.1673539 30,22.5564137 L30,5.13589403 C30,4.5249538 29.963511,4.33890528 29.8603632,4.14900292 C29.7843251,4.00901142 29.6783478,3.90466449 29.5361689,3.82979622 C29.3432993,3.72823531 29.1543438,3.69230769 28.5338576,3.69230769 Z" id="Combined-Shape" stroke="#8B8B8B" stroke-width="2" fill="#252526" fill-rule="nonzero"></path>
            <g id="root" transform="translate(6.000000, 14.000000)" fill="#8B8B8B">
                <circle id="Oval" cx="2" cy="2" r="2"></circle>
                <circle id="Oval" cx="9" cy="2" r="2"></circle>
                <circle id="Oval" cx="16" cy="2" r="2"></circle>
            </g>
            <rect id="Path" fill="#8B8B8B" transform="translate(15.000000, 8.500000) scale(1, -1) translate(-15.000000, -8.500000) " x="0" y="8" width="30" height="1"></rect>
        </g>
    </g>
</svg>